<svg width="25" height="25" xmlns="http://www.w3.org/2000/svg" viewBox="0 0 100 100"><defs><style>.cls-2{fill:#fff}</style></defs><path d="M50 0a50 50 0 1 0 50 50A50.06 50.06 0 0 0 50 0z" style="fill:#015871"/><path class="cls-2" d="M16.31 50.43a11.79 11.79 0 0 1 3.56-8.58 11.43 11.43 0 0 1 8.37-3.59 12.88 12.88 0 0 1 8.08 2.85 4.1 4.1 0 0 1 1.92 3.13 2.44 2.44 0 0 1-.77 1.76 2.58 2.58 0 0 1-1.93.79 3 3 0 0 1-2-.86 7.57 7.57 0 0 0-5.11-2.24 6.35 6.35 0 0 0-4.7 2 6.54 6.54 0 0 0-2 4.75 6.8 6.8 0 0 0 6.93 6.87 6 6 0 0 0 3.16-.86A12.93 12.93 0 0 0 33.76 55a2.9 2.9 0 0 1 1.92-.85 2.8 2.8 0 0 1 2.06.81 2.45 2.45 0 0 1 .71 1.75q0 2.07-3.06 4a12.22 12.22 0 0 1-6.69 2 12 12 0 0 1-8.76-3.59 11.8 11.8 0 0 1-3.63-8.69zM56.52 43.24h-4.4v16.41a3.07 3.07 0 0 1-.8 2.24 2.63 2.63 0 0 1-2 .82 2.58 2.58 0 0 1-1.94-.82 3.11 3.11 0 0 1-.79-2.24V43.24h-4.36a2.84 2.84 0 0 1-2-.71 2.54 2.54 0 0 1 0-3.56 2.84 2.84 0 0 1 2-.71H56.5a2.84 2.84 0 0 1 2 .71 2.35 2.35 0 0 1 .75 1.78 2.38 2.38 0 0 1-.73 1.78 2.79 2.79 0 0 1-2 .71zM58.77 50.43a11.79 11.79 0 0 1 3.56-8.58 11.4 11.4 0 0 1 8.36-3.59 12.84 12.84 0 0 1 8.08 2.85 4.08 4.08 0 0 1 1.93 3.13 2.44 2.44 0 0 1-.77 1.76 2.59 2.59 0 0 1-1.93.79 3 3 0 0 1-2-.86 7.57 7.57 0 0 0-5.11-2.24 6.39 6.39 0 0 0-4.71 2 6.57 6.57 0 0 0-2 4.75 6.8 6.8 0 0 0 6.93 6.87 6.05 6.05 0 0 0 3.16-.86A13.51 13.51 0 0 0 76.22 55a2.9 2.9 0 0 1 1.92-.85 2.81 2.81 0 0 1 2.06.81 2.49 2.49 0 0 1 .71 1.75q0 2.07-3.06 4a12.22 12.22 0 0 1-6.69 2 12 12 0 0 1-8.76-3.59 11.8 11.8 0 0 1-3.63-8.69z"/></svg>